<svg xmlns="http://www.w3.org/2000/svg" version="1.1" xmlns:xlink="http://www.w3.org/1999/xlink" width="512" height="512" x="0" y="0" viewBox="0 0 512 512" style="enable-background:new 0 0 512 512" xml:space="preserve" class=""><g><path fill="#6bd9e7" d="M464.498 307.156a310.945 310.945 0 0 1-17.417 50.823 10.548 10.548 0 0 1-9.647 6.272h-16.433c7.056-12.177 2.847-24.863 7.928-37.937 4.08-10.498 17.81-21.247 20.561-32.184h4.762c6.826 0 11.893 6.401 10.246 13.026z" opacity="1" data-original="#6bd9e7"></path><path fill="#2ed1e2" d="M480.983 307.158a310.812 310.812 0 0 1-17.42 50.819 10.534 10.534 0 0 1-9.643 6.274h-18.543c4.172 0 7.953-2.452 9.643-6.274a310.816 310.816 0 0 0 17.421-50.819c1.648-6.624-3.42-13.032-10.25-13.032h18.543c6.829 0 11.898 6.407 10.249 13.032z" opacity="1" data-original="#2ed1e2"></path><path fill="#6bd9e7" d="M473.69 232.146c0 8.762-.369 17.491-1.102 26.166-.463 5.476-5.015 9.701-10.511 9.701h-7.328c2.013-13.364-7.266-26.919-7.266-40.578 0-9.96 9.68-19.815 8.436-29.532h6.132c5.46 0 10.001 4.17 10.505 9.606a266.813 266.813 0 0 1 1.134 24.637z" opacity="1" data-original="#6bd9e7"></path><path fill="#2ed1e2" d="M490.172 232.149c0 8.757-.371 17.493-1.102 26.167-.464 5.47-5.017 9.694-10.508 9.694h-18.543c5.491 0 10.044-4.224 10.508-9.694a311.28 311.28 0 0 0 1.102-26.167c0-8.283-.381-16.493-1.133-24.642-.505-5.439-5.048-9.601-10.508-9.601h18.543c5.46 0 10.003 4.162 10.508 9.601a267.977 267.977 0 0 1 1.133 24.642z" opacity="1" data-original="#2ed1e2"></path><path fill="#d7d0d6" d="M216.127 38.977c-.002 18.44 23.207 34.438 41.273 38.138 29.045 5.948 55.776 20.255 77.312 41.731 29.123 29.041 45.161 67.607 45.161 108.592 0 35.828-9.883 70.764-28.253 101.059-9.846 16.237-6.494 37.214 7.878 49.624a38.995 38.995 0 0 0 9.96 6.275c17.35 7.536 28.198-5.714 38.605-22.91 25.636-42.36 39.425-83.977 39.425-134.048 0-61.839-24.17-119.998-68.058-163.764-32.426-32.336-62.377-50.794-106.135-59.775-7.817-1.604-15.475-3.856-22.261-1.151a39.294 39.294 0 0 0-18.127 14.695c-4.074 6.12-16.779 13.495-16.78 21.534z" opacity="1" data-original="#d7d0d6"></path><path fill="#c9bfc8" d="M389.732 63.673C357.306 31.338 317.053 9.789 273.295.808c-7.819-1.605-15.473-.753-22.261 1.953 40.409 9.933 77.513 30.718 107.792 60.912 43.888 43.766 68.058 101.925 68.058 163.764a272.882 272.882 0 0 1-39.425 141.259c-4.426 7.313-10.798 12.597-17.991 15.688 17.349 7.531 38.491 1.506 48.897-15.688a272.882 272.882 0 0 0 39.425-141.259c0-61.838-24.17-119.997-68.058-163.764z" opacity="1" data-original="#c9bfc8"></path><path fill="#fed2a4" d="M225.946 57.122c-6.417.018-13.116-1.663-19.941-.942-29.216 3.088-60.719 12.444-82.093 26.54-46.395 30.597-66.66 83.524-66.66 143.15v149.542c0 68.121 50.126 124.754 115.431 134.951 6.896 1.077 13.962-.424 21.156-.424 57.865 0 96.296-37.789 109.899-91.485 5.611-22.148 16.637-42.556 31.57-59.849a205.657 205.657 0 0 0 49.987-134.372c.001-93.441-65.847-167.371-159.349-167.111z" opacity="1" data-original="#fed2a4"></path><path fill="#ffbd86" d="M225.946 55.062c-6.79.019-13.48.455-20.056 1.26 83.567 10.227 148.5 81.627 148.5 167.911a205.662 205.662 0 0 1-49.987 134.372c-14.932 17.293-25.959 37.701-31.57 59.849-11.998 47.361-51.332 83.93-100.15 91.905a137.049 137.049 0 0 0 21.156 1.64c57.865 0 106.598-39.849 120.201-93.545 5.611-22.148 16.637-42.556 31.57-59.849a205.657 205.657 0 0 0 49.987-134.372c.001-93.441-76.149-169.432-169.651-169.171z" opacity="1" data-original="#ffbd86"></path><path fill="#ffbd86" d="M127.65 225.493c0-13.729 2.768-26.868 7.78-38.848 1.086-2.596 12.579-5.137 13.871-7.618 1.418-2.724-7.345-5.376-5.693-7.948 14.019-21.816 36.215-37.86 62.295-43.456 6.309-1.354 12.845.994 19.547.929 54.91-.533 89.449 40.891 89.449 95.681a135.247 135.247 0 0 1-32.871 88.364l-29.731 34.43a62.445 62.445 0 0 0-15.174 40.795v.197c0 29.594-13.689 51.524-43.282 51.524h-.001c-7.611 0-14.922.776-21.728-1.588-25.883-8.991-44.462-33.597-44.462-62.541z" opacity="1" data-original="#ffbd86"></path><path fill="#f6a96c" d="M225.451 125.462a97.521 97.521 0 0 0-19.587 2.173c44.587 9.519 78.131 49.213 78.131 96.599a135.243 135.243 0 0 1-32.872 88.364l-29.731 34.43a62.445 62.445 0 0 0-15.174 40.795v.197c0 22.719-14.146 42.121-34.105 49.917a66.054 66.054 0 0 0 21.728 3.668h.001c29.594 0 53.584-23.991 53.584-53.584v-.197a62.447 62.447 0 0 1 15.174-40.795l29.731-34.43a135.247 135.247 0 0 0 32.871-88.364c0-54.791-44.841-99.305-99.751-98.773z" opacity="1" data-original="#f6a96c"></path><path fill="#6bd9e7" d="M216.124 38.973c0 5.712 1.233.881 3.478 5.824a246.985 246.985 0 0 0-3.952-.032c-12.098.034-13.587 11.654-24.948 14.127-26.046 5.67-49.831 17.406-69.872 33.637-25.882 20.961-45.521 49.419-55.726 81.985-2.119 6.756 3.014 13.607 10.087 13.607h13.006c39.292 0 71.144 31.851 71.144 71.144v14.629h-36.889v-14.629c0-18.919-15.335-34.254-34.254-34.254H43.75v-.021c-13.038 0-23.282-11.33-21.775-24.273C32.528 109.924 101.489 36.734 189.8 20.642c11.706-2.133 13.449 7.039 25.744 7.005 0 0 4.911.032 7.062.105-4.079 6.124-6.482 3.189-6.482 11.221z" opacity="1" data-original="#6bd9e7"></path><path fill="#2ed1e2" d="M232.873 17.5c-4.049 6.109-6.439 13.465-6.439 21.479a38.821 38.821 0 0 0 3.42 15.989c.021.051.031.093.051.134a247.422 247.422 0 0 0-3.956-.031 167.024 167.024 0 0 0-35.263 3.832 38.915 38.915 0 0 1-5.46-19.924c0-6.686 1.659-12.908 4.574-18.337a204.009 204.009 0 0 1 36.046-3.297h.587c2.163 0 4.327.031 6.47.103-.01.021-.02.031-.03.052z" opacity="1" data-original="#2ed1e2"></path><path fill="#f9f7f8" d="M199.947 304.986c0 32.938-16.399 55.519-49.337 55.519-5.695 0-11.203 3.322-16.419 1.832-24.953-7.131-43.22-30.108-43.22-57.351 0-27.296 18.337-50.309 43.365-57.392 5.173-1.464 10.632.843 16.274.843 32.938.001 49.337 23.611 49.337 56.549z" opacity="1" data-original="#f9f7f8"></path><path fill="#efedef" d="M210.25 304.984c0 32.945-26.702 59.637-59.637 59.637a59.21 59.21 0 0 1-16.421-2.297c24.941-7.129 43.206-30.092 43.206-57.34 0-27.238-18.265-50.211-43.206-57.34a59.21 59.21 0 0 1 16.421-2.297c32.935-.001 59.637 26.702 59.637 59.637z" opacity="1" data-original="#efedef"></path><circle cx="150.61" cy="304.986" r="26.786" fill="#7b7179" transform="rotate(-40.38 150.529 304.864)" opacity="1" data-original="#7b7179"></circle><path fill="#f6a96c" d="M269.455 242.657a7.729 7.729 0 0 1-7.726 7.726 7.722 7.722 0 0 1-7.726-7.726c0-30.947-25.178-56.125-56.125-56.125H135.48a99.365 99.365 0 0 1 8.139-15.453h54.26c39.465.001 71.576 32.112 71.576 71.578z" opacity="1" data-original="#f6a96c"></path></g></svg>
