<svg xmlns="http://www.w3.org/2000/svg" version="1.1" xmlns:xlink="http://www.w3.org/1999/xlink" width="512" height="512" x="0" y="0" viewBox="0 0 512 512" style="enable-background:new 0 0 512 512" xml:space="preserve" class=""><g><g fill="#671c80"><path d="M77.527 244.82c-6.087 1.592-40.045 19.619-71.809 44.682-11.167 8.811-4.865 26.776 9.302 26.776 10.498 0 11.188-8.479 50.844-31.684 2.088-14.403 6.117-27.508 11.663-39.774zM72.797 350.684c-35.974 18.922-56.765 37.439-66.239 43.899-6.844 4.668-8.608 14-3.94 20.844 4.683 6.865 14.02 8.592 20.843 3.94 11.164-7.614 30.223-24.843 64.015-42.508a115.577 115.577 0 0 1-14.679-26.175zM508.958 145.747c-4.998-6.606-14.405-7.908-21.012-2.911a159.893 159.893 0 0 0-8.354 6.778c-92.248 80.156-188.243 47.615-303.247 65.402 1.672 9.471 3.415 19.329 5.224 29.549 111.213-16.988 216.446 15.675 317.698-72.306a129.93 129.93 0 0 1 6.78-5.5c6.607-4.998 7.91-14.405 2.911-21.012z" fill="#671c80" opacity="1" data-original="#671c80"></path></g><path fill="#471a52" d="M506.052 166.763c-2.31 1.74-4.59 3.59-6.78 5.5-69.05 60-139.949 63.89-213.339 65.68v-29.98c69.21-1.57 132.269-5 193.659-58.35 2.7-2.35 5.51-4.63 8.35-6.78 6.61-4.99 16.02-3.69 21.02 2.91 5 6.61 3.69 16.02-2.91 21.02z" opacity="1" data-original="#471a52" class=""></path><path fill="#671c80" d="M508.319 250.836c-5.434-6.255-14.908-6.918-21.161-1.483-68.793 59.78-137.577 56.617-223.223 59.07a75.161 75.161 0 0 1 3.643 29.908c43.927-1.19 86.473-.827 128.965-10.42 41.774-9.432 77.851-27.721 110.293-55.913 6.253-5.435 6.917-14.909 1.483-21.162z" opacity="1" data-original="#671c80"></path><path fill="#471a52" d="M506.832 271.993c-32.44 28.2-68.52 46.48-110.289 55.92-36.55 8.25-73.14 9.14-110.609 9.98v-30.03c75.63-1.82 138.419-3.94 201.229-58.51 6.25-5.43 15.72-4.77 21.16 1.48 5.429 6.26 4.769 15.73-1.491 21.16z" opacity="1" data-original="#471a52" class=""></path><circle cx="45.959" cy="106.006" r="15" fill="#fcd65e" opacity="1" data-original="#fcd65e"></circle><path fill="#f23866" d="M187.987 252.126a49664.401 49664.401 0 0 1-15.643-88.701c14.199-15.73 26.797-31.469 34.996-49.112 10.266-22.091 14.929-42.499 13.861-60.657-4.622-78.627-110.22-72.032-93.484 27.683 3.039 18.11 7.436 43.558 12.522 72.66-41.547 44.469-78.181 83.321-80.845 146.181-3.316 78.229 62.638 134.96 129.108 125.88 1.998 11.165 3.176 17.734 3.249 18.141 3.393 19.223-11.009 36.384-29.871 37.714-18.995 1.331-35.617-13.803-34.788-33.359l.088-2.086c.351-8.276-6.074-15.27-14.351-15.621-8.256-.383-15.271 6.073-15.621 14.351l-.088 2.085c-1.57 37.028 29.667 67.186 66.87 64.554 36.98-2.609 63.721-36.491 57.296-72.895a42580.6 42580.6 0 0 1-3.856-21.528c27.73-13.217 48.668-39.161 54.231-71.507 9.097-52.887-35.404-98.098-83.674-93.783zm-7.853-150.456c-3.635 7.822-8.635 15.511-14.52 23.196-3.298-19-6.15-35.611-8.312-48.492-12.193-72.648 61.029-56.903 22.832 25.296zM89.366 301.449c1.962-46.29 28.744-79.485 57.36-110.462 4.019 22.845 8.258 46.829 12.465 70.561-25.934 15.651-38.719 46.401-29.862 73.224 2.597 7.866 11.078 12.138 18.946 9.54 7.867-2.597 12.138-11.08 9.54-18.946-3.242-9.819-.488-21.018 7.363-30.079 6.827 38.423 13.227 74.292 18.034 101.196-47.693 5.671-96.335-36.296-93.846-95.034zm152.731 39.375c-3.343 19.435-14.715 35.529-30.238 45.429-5.045-28.241-11.645-65.242-18.592-104.366 28.179-.658 54.361 26.775 48.83 58.937z" opacity="1" data-original="#f23866"></path><path fill="#f8c14c" d="m428.508 375.987-30.099-14.5C388.46 356.694 376.9 363.959 376.9 375v32.546c-29.239-10.292-59.898 11.552-59.898 42.453 0 24.813 20.186 44.999 44.999 44.999 25.677 0 46.546-21.68 44.899-47.855v-48.268l8.59 4.138c7.465 3.595 16.428.46 20.023-7.004 3.594-7.462.459-16.426-7.005-20.022z" opacity="1" data-original="#f8c14c"></path><path fill="#fcd65e" d="M441.028 14.991c-.011-9.954-9.536-17.109-19.067-14.421l-110.021 31a14.999 14.999 0 0 0-10.932 14.437v47.745c-29.231-10.394-60.034 11.418-60.034 42.407 0 24.813 20.186 44.999 44.999 44.999 24.827 0 45.034-20.222 45.034-45.153V57.364l80.043-22.552.032 28.767c-29.289-10.37-59.975 11.526-59.975 42.427 0 24.813 20.186 44.999 44.999 44.999 24.887 0 45.05-20.338 45.022-45.016z" opacity="1" data-original="#fcd65e"></path><path fill="#f8c14c" d="M441.132 105.993c.02 24.67-20.14 45.01-45.03 45.01-24.81 0-45-20.18-45-45 0-30.9 30.69-52.79 59.98-42.42l-.03-28.77-80.05 22.55v78.64c0 24.93-20.2 45.16-45.03 45.16h-.04v-90.03c4.96 0 10.04.83 15.07 2.62v-47.75c0-6.71 4.47-12.61 10.94-14.43l110.019-31c9.53-2.69 19.05 4.46 19.07 14.42z" opacity="1" data-original="#f8c14c"></path></g></svg>
