<svg xmlns="http://www.w3.org/2000/svg" version="1.1" xmlns:xlink="http://www.w3.org/1999/xlink" width="512" height="512" x="0" y="0" viewBox="0 0 512 512" style="enable-background:new 0 0 512 512" xml:space="preserve"><g><path fill="#00b6ff" d="M455.015 512c8.251 0 14.997-6.695 14.997-15v-65.333H497c8.284 0 15-6.716 15-15v-289.2c0-8.284-6.716-15-15-15H239.934c-8.284 0-15 6.716-15 15v289.2c0 8.284 6.716 15 15 15h128.533l75.939 75.939A14.99 14.99 0 0 0 455.015 512z" opacity="1" data-original="#00b6ff"></path><path fill="#4893ff" d="M455.015 512c8.251 0 14.997-6.695 14.997-15v-65.333H497c8.284 0 15-6.716 15-15v-289.2c0-8.284-6.716-15-15-15H368.467v319.2l75.939 75.939A14.99 14.99 0 0 0 455.015 512z" opacity="1" data-original="#4893ff"></path><path fill="#f5faff" d="m431.22 332.695-28.238-112.957A35.52 35.52 0 0 0 368.46 192.8a35.516 35.516 0 0 0-34.508 26.939l-28.237 112.956c-2.009 8.037 2.878 16.181 10.915 18.19s16.181-2.878 18.19-10.914l5.192-20.771h56.912l5.192 20.771c2.009 8.037 10.153 12.923 18.19 10.914s12.923-10.153 10.914-18.19zM347.511 289.2l15.546-62.186a5.564 5.564 0 0 1 5.418-4.215 5.557 5.557 0 0 1 5.402 4.215l15.546 62.186z" opacity="1" data-original="#f5faff"></path><path fill="#ffcb00" d="M56.985 399.533c-8.251 0-14.997-6.695-14.997-15V319.2H15c-8.284 0-15-6.716-15-15V15C0 6.716 6.716 0 15 0h257.066c8.284 0 15 6.716 15 15v289.2c0 8.284-6.716 15-15 15H143.533l-75.939 75.94a14.993 14.993 0 0 1-10.609 4.393z" opacity="1" data-original="#ffcb00"></path><path fill="#ff9d22" d="M272.066 0H143.533v319.2h128.533c8.284 0 15-6.716 15-15V15c0-8.284-6.715-15-15-15z" opacity="1" data-original="#ff9d22"></path><path fill="#f5faff" d="M212.06 225.551a139.427 139.427 0 0 1-46.766-24.254 176.89 176.89 0 0 0 38.678-74.896h3.828c8.284 0 15-6.716 15-15s-6.716-15-15-15h-49.267V79.267c0-8.284-6.716-15-15-15s-15 6.716-15 15V96.4H79.267c-8.284 0-15 6.716-15 15s6.716 15 15 15h93.647c-5.886 20.03-16.161 38.276-29.38 53.804-3.113-3.795-5.732-7.719-8.444-11.852l-11.15-16.984c-4.547-6.925-13.847-8.854-20.771-4.307-6.926 4.547-8.854 13.847-4.307 20.771l11.147 16.98a168.934 168.934 0 0 0 12.1 16.213c-20.912 16.242-40.137 22.199-47.564 24.67-7.863 2.607-12.123 11.096-9.516 18.959 2.088 6.297 7.945 10.282 14.235 10.282 4.586 0 35.634-9.388 64.269-32.651 28.617 23.717 59.609 32.651 64.272 32.651 6.473 0 12.445-4.223 14.377-10.744 2.353-7.942-2.179-16.289-10.122-18.641z" opacity="1" data-original="#f5faff"></path><g fill="#dfe9ee"><path d="M212.06 225.551a139.427 139.427 0 0 1-46.766-24.254 176.89 176.89 0 0 0 38.678-74.896h3.828c8.284 0 15-6.716 15-15s-6.716-15-15-15h-49.267V79.267c0-8.284-6.716-15-15-15v62.134h29.38c-5.886 20.03-16.161 38.276-29.38 53.804v42.083c28.617 23.717 59.609 32.651 64.272 32.651 6.473 0 12.445-4.223 14.377-10.744 2.353-7.945-2.179-16.292-10.122-18.644zM402.115 339.971c2.009 8.037 10.153 12.923 18.19 10.914s12.924-10.153 10.915-18.19l-28.238-112.957a35.52 35.52 0 0 0-34.515-26.938v30l.008-.001a5.557 5.557 0 0 1 5.402 4.215l15.546 62.186h-20.956v30h28.456z" fill="#dfe9ee" opacity="1" data-original="#dfe9ee"></path></g></g></svg>
