<svg xmlns="http://www.w3.org/2000/svg" version="1.1" xmlns:xlink="http://www.w3.org/1999/xlink" width="512" height="512" x="0" y="0" viewBox="0 0 512 512" style="enable-background:new 0 0 512 512" xml:space="preserve" class=""><g><path fill="#4d66d2" d="M95.367 312.91s45.071-121.786 44.685-121.915-4.372-16.36-4.372-16.36a10.756 10.756 0 0 1-8.663-3.098l-19.399-19.399c-4.205-4.205-11.023-4.205-15.228 0l-36.031 36.031c-4.205 4.205-4.205 11.023 0 15.228l19.399 19.399a10.775 10.775 0 0 1 1.805 12.828 156.969 156.969 0 0 0-13.312 32.104 10.766 10.766 0 0 1-10.34 7.778H26.49c-5.947 0-10.768 4.821-10.768 10.768v50.955c0 5.947 4.821 10.768 10.768 10.768h27.42c4.795 0 9.006 3.172 10.34 7.778a156.872 156.872 0 0 0 13.312 32.103 10.775 10.775 0 0 1-1.805 12.828l-19.399 19.399c-4.205 4.205-4.205 11.023 0 15.228l36.031 36.031c4.205 4.205 11.023 4.205 15.228 0l19.399-19.399a10.748 10.748 0 0 1 8.491-3.108l4.546-26.455z" opacity="1" data-original="#4d66d2"></path><path fill="#6b7ed9" d="M405.452 275.506h-42.098a5.137 5.137 0 0 0-5.138 5.137v25.97c0 2.837-2.3 5.138-5.137 5.138h-28.041c-2.765 0-5.003 2.19-5.133 4.953-2.608 55.653-48.937 99.872-105.415 99.086-56.041-.78-101.778-46.516-102.557-102.557-.809-58.144 46.081-105.531 104.039-105.531 10.294 0 20.237 1.498 29.626 4.283 3.303.98 6.62-1.466 6.62-4.912V122.27c0-5.947-4.821-10.768-10.768-10.768h-50.955c-5.947 0-10.768 4.821-10.768 10.768v27.42c0 4.795-3.172 9.006-7.777 10.34a157.015 157.015 0 0 0-32.104 13.312 10.798 10.798 0 0 1-4.165 1.293c-31.149 37.17-49.934 85.034-49.934 137.21 0 52.083 18.715 99.87 49.762 137.011 1.488.122 2.967.548 4.337 1.304a156.933 156.933 0 0 0 32.104 13.311 10.765 10.765 0 0 1 7.777 10.34v27.42c0 5.947 4.821 10.768 10.768 10.768h50.955c5.947 0 10.768-4.821 10.768-10.768v-27.42c0-4.795 3.172-9.006 7.777-10.34a157.013 157.013 0 0 0 32.103-13.311 10.773 10.773 0 0 1 12.828 1.804l19.399 19.399c4.205 4.205 11.023 4.205 15.228 0l36.031-36.031c4.205-4.205 4.205-11.023 0-15.229l-19.399-19.399a10.775 10.775 0 0 1-1.804-12.829 156.901 156.901 0 0 0 13.311-32.103 10.767 10.767 0 0 1 10.34-7.778h27.419c5.947 0 10.768-4.821 10.768-10.768v-50.955c.001-5.944-4.82-10.765-10.767-10.765z" opacity="1" data-original="#6b7ed9"></path><g fill="#00d2fc"><path d="M325.03 232.063h-39.169a4.688 4.688 0 0 0-4.688 4.688v39.169a4.688 4.688 0 0 0 4.688 4.688h39.169a4.688 4.688 0 0 0 4.688-4.688v-39.169a4.688 4.688 0 0 0-4.688-4.688zM385.872 0h-39.169a4.688 4.688 0 0 0-4.688 4.688v39.169a4.688 4.688 0 0 0 4.688 4.688h39.169a4.688 4.688 0 0 0 4.688-4.688V4.688A4.687 4.687 0 0 0 385.872 0zM468.873 185.578h-39.169a4.688 4.688 0 0 0-4.688 4.688v39.169a4.688 4.688 0 0 0 4.688 4.688h39.169a4.688 4.688 0 0 0 4.688-4.688v-39.169a4.688 4.688 0 0 0-4.688-4.688zM491.589 62.221h-68.178a4.688 4.688 0 0 0-4.688 4.688v68.178a4.688 4.688 0 0 0 4.688 4.688h68.178a4.688 4.688 0 0 0 4.688-4.688V66.91a4.688 4.688 0 0 0-4.688-4.689zM380.374 108.55h-76.421a4.688 4.688 0 0 0-4.688 4.688v76.421a4.688 4.688 0 0 0 4.688 4.688h76.421a4.688 4.688 0 0 0 4.688-4.688v-76.421a4.688 4.688 0 0 0-4.688-4.688zM215.971 269.717c-23.232 0-42.131 18.9-42.131 42.13 0 23.232 18.9 42.131 42.131 42.131s42.13-18.9 42.13-42.131c.001-23.23-18.899-42.13-42.13-42.13z" fill="#00d2fc" opacity="1" data-original="#00d2fc" class=""></path></g></g></svg>
