<svg xmlns="http://www.w3.org/2000/svg" version="1.1" xmlns:xlink="http://www.w3.org/1999/xlink" width="512" height="512" x="0" y="0" viewBox="0 0 512 512" style="enable-background:new 0 0 512 512" xml:space="preserve" class=""><g><path fill="#ffe559" d="M476.978 146.882c-5.077-4.436-6.155-11.831-2.491-17.49a47.586 47.586 0 0 0 7.651-25.952c0-32.711-31.319-54.134-60.267-46.254-6.958 1.894-14.053-2.093-16.249-8.961C396.727 20.397 370.665.246 339.885.246c-19.453 0-37.016 8.054-49.558 21.004-4.854 5.012-12.76 5.328-18.094.831a94.042 94.042 0 0 0-20.587-13.196h-21.644l-39.906 17.039-31.428 49.691-34.983 18.315-29.919 36.02-36.7 88.131v92.86l47.028 58.398 46.376 60.249 30.391 17.256v24.467l10.592 8.182c12.738-20.061 36.981-41.014 74.577-55.312 29.881-11.363 43.292-33.862 49.244-53.414 1.588-5.217 6.226-8.866 11.658-9.337 44.114-3.825 79.641-38.16 84.984-82.024.869-7.131 7.155-12.301 14.315-11.725 39.198 3.154 74.366-27.891 74.366-68.836.001-20.731-9.146-39.316-23.619-51.963z" opacity="1" data-original="#ffe559"></path><path fill="#fbc700" d="M191.476 450.404c.005-5.48-3.452-10.297-8.573-12.249-28.95-11.034-48.136-39.766-46.45-71.33.31-5.806-3.433-11.913-10.251-13.683-36.576-9.497-55.671-51.109-39.066-85.088 2.436-4.984 1.697-10.991-2.189-14.952-20.316-20.709-11.785-56.441 14.669-66.406 6.328-2.384 9.865-9.124 8.215-15.682-10.362-41.18 19.793-83.326 63.266-85.504 5.747-.288 10.712-4.183 12.199-9.741 8.818-32.956 35.117-58.753 68.349-66.883C239.54 3.191 226.023 0 211.757 0c-43.457 0-80.019 29.512-90.742 69.587-1.487 5.558-6.453 9.454-12.199 9.741-43.473 2.178-73.628 44.324-63.266 85.504 1.65 6.558-1.887 13.298-8.215 15.682-26.455 9.965-34.986 45.697-14.669 66.406 3.885 3.96 4.625 9.967 2.189 14.952-16.605 33.979 2.489 75.591 39.066 85.088 6.818 1.77 10.561 7.878 10.251 13.683-1.686 31.563 17.5 60.296 46.45 71.33 5.121 1.952 8.578 6.769 8.573 12.249l-.043 52.029c0 8.697 7.05 15.747 15.747 15.747h22.002c7.238 0 13.448-4.957 15.282-11.958 1.708-6.518 4.78-13.479 9.27-20.549z" opacity="1" data-original="#fbc700"></path><path fill="#4d66d2" d="m313.607 159.908-31.646-18.271h-9.677L206.1 175.13V256l14.214 11.847 44.556 24.725 15.127 1.952 33.609-19.404c9.172-5.296 14.871-15.165 14.871-25.757v-63.697c.001-10.593-5.698-20.462-14.87-25.758z" opacity="1" data-original="#4d66d2"></path><path fill="#2f4dca" d="M228.113 264.568c-9.172-5.296-14.871-15.165-14.871-25.757v-40.328c0-10.592 5.698-20.461 14.871-25.757l53.848-31.089-23.518-13.578c-9.172-5.296-20.569-5.296-29.741 0l-55.164 31.848c-9.173 5.296-14.871 15.165-14.871 25.757v63.697c0 10.592 5.698 20.461 14.871 25.757l55.164 31.848c9.173 5.296 20.569 5.296 29.741 0l21.555-12.444z" opacity="1" data-original="#2f4dca"></path><path fill="#dbedff" d="m258.069 246.958-26.51-69.95a7.725 7.725 0 0 0-14.45 0l-26.51 69.95c-1.512 3.99.496 8.451 4.487 9.963s8.451-.496 9.963-4.487l4.667-12.313h29.237l4.667 12.313a7.725 7.725 0 0 0 9.963 4.486 7.724 7.724 0 0 0 4.486-9.962zm-42.497-22.29 8.762-23.12 8.762 23.12zM280.01 172.019a7.726 7.726 0 0 0-7.726 7.726v69.95a7.726 7.726 0 1 0 15.452 0v-69.95a7.725 7.725 0 0 0-7.726-7.726z" opacity="1" data-original="#dbedff" class=""></path><g fill="#60b9fe"><path d="M179.68 51.765a7.726 7.726 0 0 0-7.726 7.726v51.596a7.726 7.726 0 1 0 15.452 0V59.491a7.725 7.725 0 0 0-7.726-7.726zM222.275 104.304a7.726 7.726 0 0 0 7.726-7.726V59.491a7.726 7.726 0 1 0-15.452 0v37.087a7.726 7.726 0 0 0 7.726 7.726zM264.87 104.304a7.726 7.726 0 0 0 7.726-7.726V59.491a7.726 7.726 0 1 0-15.452 0v37.087a7.726 7.726 0 0 0 7.726 7.726zM380.502 59.491a7.726 7.726 0 0 0-7.726-7.726h-65.31a7.726 7.726 0 0 0-7.726 7.726v51.596a7.726 7.726 0 1 0 15.452 0v-43.87h57.584a7.726 7.726 0 0 0 7.726-7.726zM179.68 316.214a7.726 7.726 0 0 0-7.726 7.726v43.869h-34.809a7.726 7.726 0 0 0-7.726 7.726v24.69a7.726 7.726 0 1 0 15.452 0v-16.964h34.809a7.726 7.726 0 0 0 7.726-7.726v-51.596a7.726 7.726 0 0 0-7.726-7.725zM222.275 330.723a7.726 7.726 0 0 0-7.726 7.726v61.777a7.726 7.726 0 1 0 15.452 0v-61.777a7.725 7.725 0 0 0-7.726-7.726zM264.87 330.723a7.726 7.726 0 0 0-7.726 7.726v37.087a7.726 7.726 0 1 0 15.452 0v-37.087a7.725 7.725 0 0 0-7.726-7.726zM307.465 316.214a7.726 7.726 0 0 0-7.726 7.726v8.783a7.726 7.726 0 1 0 15.452 0v-8.783a7.726 7.726 0 0 0-7.726-7.726zM85.55 246.538h37.087a7.726 7.726 0 1 0 0-15.452H85.55a7.726 7.726 0 1 0 0 15.452zM85.55 203.943h37.087a7.726 7.726 0 1 0 0-15.452H85.55a7.726 7.726 0 1 0 0 15.452zM372.776 273.68H350a7.726 7.726 0 1 0 0 15.452h22.776a7.726 7.726 0 1 0 0-15.452zM401.595 231.085h-37.087a7.726 7.726 0 1 0 0 15.452h37.087a7.726 7.726 0 0 0 7.726-7.726 7.725 7.725 0 0 0-7.726-7.726zM459.312 188.49h-94.803a7.726 7.726 0 1 0 0 15.452h94.803a7.726 7.726 0 1 0 0-15.452zM342.273 153.621a7.726 7.726 0 0 0 7.726 7.726h51.596a7.726 7.726 0 0 0 7.726-7.726v-39.616h25.357a7.726 7.726 0 1 0 0-15.452h-33.084a7.726 7.726 0 0 0-7.726 7.726v39.616H350a7.727 7.727 0 0 0-7.727 7.726zM144.872 281.406a7.726 7.726 0 0 0-7.726-7.726H85.55a7.726 7.726 0 0 0-7.726 7.726v36.92a7.726 7.726 0 1 0 15.452 0v-29.194h43.869a7.726 7.726 0 0 0 7.727-7.726zM101.492 161.348h35.653a7.726 7.726 0 1 0 0-15.452h-27.926V129.95a7.726 7.726 0 1 0-15.452 0v23.671a7.725 7.725 0 0 0 7.725 7.727z" fill="#60b9fe" opacity="1" data-original="#60b9fe" class=""></path></g></g></svg>
