<svg xmlns="http://www.w3.org/2000/svg" version="1.1" xmlns:xlink="http://www.w3.org/1999/xlink" width="512" height="512" x="0" y="0" viewBox="0 0 512 512" style="enable-background:new 0 0 512 512" xml:space="preserve" class=""><g><ellipse cx="393.261" cy="170.498" rx="33.308" ry="29.453" style="" fill="#ffcbbe" data-original="#ffcbbe" class=""></ellipse><ellipse cx="118.739" cy="170.498" rx="33.308" ry="29.453" style="" fill="#ffcbbe" data-original="#ffcbbe" class=""></ellipse><path d="M369.63 386.76H211.35c-16.162-48.091 10.95-99.222 64.25-102.35h29.79c38.01 18.38 64.25 57.29 64.24 102.35z" style="" fill="#83deff" data-original="#83deff"></path><path d="M275.6 284.41c-38.02 18.38-64.25 57.29-64.25 102.35h-68.98c-.01-45.06 26.23-83.97 64.24-102.35h68.99z" style="" fill="#5ad6ff" data-original="#5ad6ff"></path><path d="M299.53 286.9c0 24.04-19.49 43.53-43.53 43.53-9.23 0-17.79-2.87-24.84-7.78 0-23.103 18.799-38.752 44.44-38.24h23.86c.04.82.07 1.65.07 2.49z" style="" fill="#ffddcf" data-original="#ffddcf"></path><path d="M275.6 284.41a114.165 114.165 0 0 0-44.44 38.24c-11.3-7.86-18.69-20.94-18.69-35.75 0-.84.03-1.67.07-2.49h63.06z" style="" fill="#ffcbbe" data-original="#ffcbbe" class=""></path><path d="M393.85 170.58c0 52.21-37.12 96.75-89.3 114.1-73.39-4.439-106.114-61.89-106.114-114.1 0-52.21 43.606-109.805 106.114-114.11 52.18 17.35 89.3 61.89 89.3 114.11z" style="" fill="#ffddcf" data-original="#ffddcf"></path><path d="M304.55 284.68c-15.1 5.04-31.46 7.79-48.55 7.79-76.13 0-137.85-54.57-137.85-121.89 0-67.33 61.72-121.9 137.85-121.9 17.09 0 33.45 2.75 48.55 7.79-52.17 17.36-89.29 61.9-89.29 114.11s37.12 96.75 89.29 114.1z" style="" fill="#ffcbbe" data-original="#ffcbbe" class=""></path><path d="M389.85 439.17v42.26c0 12.74-10.32 23.07-23.07 23.07H231.77c-30.213 0-35.49-10.33-35.49-23.07l12.42-42.26h181.15z" style="" fill="#eaaa83" data-original="#eaaa83"></path><path d="M231.77 504.5h-86.55c-12.75 0-23.07-10.33-23.07-23.07v-42.26h86.55v42.26c0 12.74 10.33 23.07 23.07 23.07z" style="" fill="#e4996d" data-original="#e4996d"></path><path d="M435.71 405.05v20.6c0 14.21-11.52 25.74-25.73 25.74H240.99c-29.64 0-37.25-11.53-37.25-25.74v-20.6c0-14.21 7.851-25.73 37.25-25.73h168.99c14.21 0 25.73 11.52 25.73 25.73z" style="" fill="#77899b" data-original="#77899b"></path><path d="M240.99 451.39H102.02c-14.21 0-25.73-11.53-25.73-25.74v-20.6c0-14.21 11.52-25.73 25.73-25.73h138.97c-14.21 0-25.73 11.52-25.73 25.73v20.6c0 14.21 11.52 25.74 25.73 25.74z" style="" fill="#6b7d8e" data-original="#6b7d8e"></path><path d="M383.808 278.364c-5.967 5.967-15.641 5.967-21.607 0l-14.829-14.829c-5.967-5.967-5.967-15.641 0-21.607 5.967-5.967 15.641-5.967 21.607 0l14.829 14.829c5.966 5.966 5.966 15.64 0 21.607z" style="" fill="#77899b" data-original="#77899b"></path><ellipse cx="176.443" cy="199.755" rx="29.355" ry="23.377" style="" fill="#ffa1ac" data-original="#ffa1ac"></ellipse><ellipse cx="335.556" cy="199.755" rx="29.355" ry="23.377" style="" fill="#ffa1ac" data-original="#ffa1ac"></ellipse><path d="M417.69 150.48c-9.33 0-18.08-1.13-26.33-3.1-7.2-26.68-24.71-49.31-49-61.8-1.73 7.13-5.88 14.56-12.21 20.89-13.96 13.96-33.23 17.33-43.03 7.53-2.14-2.14-3.65-4.73-4.56-7.61-7.07 8.35-16.35 14.52-25.76 17.87-35.083-17.396-41.109-99.018 11.14-116.37 83.73 5.4 149.75 67.17 149.75 142.59z" style="" fill="#77899b" data-original="#77899b"></path><path d="M256.8 124.26c-13.3 4.73-26.87 3.81-34.85-4.62-4.15-4.15-6.53-9.56-7.27-15.61-13.65 11.85-31.17 14.24-40.36 5.05-4.69-4.69-6.36-11.54-5.3-18.93-21.25 9.27-38.12 26.27-48.39 57.27-8.45 2.32-17.11 3.06-26.32 3.06C94.31 71.51 166.7 7.5 256 7.5c4.02 0 8 .13 11.94.39-34.92 23.79-31.36 92.75-11.14 116.37z" style="" fill="#6b7d8e" data-original="#6b7d8e"></path><path d="M389.855 199.798c19.473 1.854 36.834-11.965 36.714-29.301 0-7.731-3.374-14.763-8.884-20.018M94.315 150.48c-5.511 5.255-8.884 12.286-8.884 20.018-.12 17.336 17.243 31.155 36.714 29.301M409.976 451.385H102.024c-14.212 0-25.733-11.521-25.733-25.733v-20.603c0-14.212 11.521-25.733 25.733-25.733h307.952c14.212 0 25.733 11.521 25.733 25.733v20.603c0 14.212-11.521 25.733-25.733 25.733zM400.722 379.316v-65.978a37.04 37.04 0 0 0-7.344-22.137l-9.57-12.837M383.808 278.364c-5.967 5.967-15.641 5.967-21.607 0l-14.829-14.829c-5.967-5.967-5.967-15.641 0-21.607 5.967-5.967 15.641-5.967 21.607 0l14.829 14.829c5.966 5.966 5.966 15.64 0 21.607zM193.551 165.252v12M318.449 165.252v12M239.536 176.895c4.003 4.594 9.892 7.501 16.464 7.501s12.461-2.907 16.464-7.501" style="stroke-width:15;stroke-linecap:round;stroke-linejoin:round;stroke-miterlimit:10;" fill="none" stroke="#000000" stroke-width="15" stroke-linecap="round" stroke-linejoin="round" stroke-miterlimit="10" data-original="#000000" class=""></path><path d="M339.8 28.177C315.362 15.056 286.679 7.5 256 7.5c-89.301 0-161.693 64.014-161.693 142.98 9.208 0 17.87-.735 26.326-3.06 10.267-30.999 27.141-47.996 48.385-57.273-1.053 7.398.615 14.248 5.301 18.935 9.193 9.193 26.707 6.799 40.365-5.049.737 6.05 3.119 11.461 7.265 15.607 13.62 14.396 43.532 6.899 60.61-13.253.911 2.886 2.422 5.476 4.561 7.615 9.802 9.803 29.067 6.431 43.029-7.531 6.333-6.333 10.479-13.756 12.213-20.893 24.289 12.49 41.799 35.125 48.997 61.806 8.255 1.971 17 3.097 26.334 3.097 0-40.213-18.782-76.542-49.002-102.52M206.614 284.409c-35.905 17.356-61.287 53.034-63.995 94.907M369.381 379.316c-2.708-41.873-28.09-77.551-63.995-94.907M212.484 286.269c-.404 24.252 19.271 44.181 43.516 44.158 24.245.023 43.92-19.906 43.516-44.158" style="stroke-width:15;stroke-linecap:round;stroke-linejoin:round;stroke-miterlimit:10;" fill="none" stroke="#000000" stroke-width="15" stroke-linecap="round" stroke-linejoin="round" stroke-miterlimit="10" data-original="#000000" class=""></path><path d="M368.286 241.302c16.095-19.944 25.566-44.357 25.566-70.726 0-7.988-.879-15.794-2.538-23.354M120.66 147.34a108.81 108.81 0 0 0-2.512 23.236c0 67.322 61.718 121.898 137.852 121.898 34.624 0 66.263-11.29 90.475-29.93M208.439 504.5h158.345c12.741 0 23.07-10.329 23.07-23.07v-30.045M122.146 451.385v30.045c0 12.741 10.329 23.07 23.07 23.07h28.223" style="stroke-width:15;stroke-linecap:round;stroke-linejoin:round;stroke-miterlimit:10;" fill="none" stroke="#000000" stroke-width="15" stroke-linecap="round" stroke-linejoin="round" stroke-miterlimit="10" data-original="#000000" class=""></path></g></svg>
