<svg xmlns="http://www.w3.org/2000/svg" version="1.1" xmlns:xlink="http://www.w3.org/1999/xlink" width="512" height="512" x="0" y="0" viewBox="0 0 512 512" style="enable-background:new 0 0 512 512" xml:space="preserve" class=""><g><path fill="#94ccd4" d="M504.5 273.101c0-70.961-31.942-134.462-82.232-176.909C381.989 62.194 268.83 58.3 268.83 58.3l-82.012.473c-.61.258-1.347.079-1.954.342C104.482 93.997 52.319 176.646 52.319 272.72c0 127.798 95.283 214.76 223.081 214.76 38.422 0 72.357 7.656 104.247-8.915C453.829 440.019 504.5 362.477 504.5 273.101z" opacity="1" data-original="#94ccd4" class=""></path><path fill="#b7e546" d="M422.27 96.19c-23.53 15.39-48.79 30.66-58.26 32.73-25.99 7.6-59.82-8.5-66.77 29.83-.2 7.4-.85 14.43-1.96 20.99-1.24 7.32-3.96 14.21-7.91 20.33s-14.463 7.906-20.583 12.106c-16.85 11.58-30.541 12.274-48.681 2.824-.46-.24-.93-.49-1.4-.74-30.22-14.81-47.973-48.87-16.643-73.76 20.59-17 17.476-46.987 3.086-65.727l-8.66-10.02c6.723-2.777 3.986-10.878 11.01-13.021 21.385-6.524 44.084-10.032 67.6-10.032 56.841 0 108.891 20.49 149.171 54.49zM452.566 215.821a72.054 72.054 0 0 0-21.444-50.801c-11.605-13.278-15.619-21.189-31.569-6.53-15.118 18.805-.207 42.145-32.34 74.213-5.691 5.793-8.884 13.723-8.563 21.852-.012-.002-.007-1.436-.018-1.438 1.155 20.135 14.908 36.366 34.51 36.366 25.18-.001 59.424-29.559 59.424-73.662z" opacity="1" data-original="#b7e546" class=""></path><path fill="#abd641" d="M380.12 231.21c-5.69 5.8-8.89 13.73-8.57 21.86-.01-.01-.01-.02-.02-.02.96 16.67 15.41 30.7 31.48 35.04-3.37.92-6.69 1.39-9.87 1.39-19.6 0-40.45-16.29-41.61-36.43.01 0 .01.01.02.02-.32-8.13 2.88-16.06 8.57-21.86 32.13-32.06 13.51-57.11 28.63-75.91 9.11-8.38 17.86-8.34 25.84-4.29-1.93 1.07-3.87 2.48-5.84 4.29-15.12 18.8 3.5 43.85-28.63 75.91z" opacity="1" data-original="#abd641"></path><path fill="#dc4955" d="M474.303 25.001v115.506l-7.36 6.988c0 9.665-10.988 11.121-20.654 11.121l-52.829-.397c-2.458 0-4.854.776-6.844 2.218l-43.595 30.271c-3.857 2.794-9.256.038-9.256-4.724l4.092-14.559c0-6.444-5.224-11.667-11.667-11.667h-14c-9.665 0-17.501-7.835-17.501-17.501L292.579 33.9c0-9.665 3.839-19.859 13.504-19.859l4.878-6.541h145.841c9.666 0 17.501 7.835 17.501 17.501z" opacity="1" data-original="#dc4955"></path><path fill="#d82f3c" d="M474.303 140.507v5.834c0 9.666-7.835 17.501-17.501 17.501h-62.63c-2.462 0-4.854.782-6.837 2.217l-47.288 34.243c-3.85 2.8-9.252.047-9.252-4.725v-20.068c0-6.444-5.224-11.667-11.667-11.667h-14.001c-9.665 0-17.501-7.835-17.501-17.501V25.001c0-9.665 7.835-17.501 17.501-17.501h5.834v130.674a2.333 2.333 0 0 0 2.333 2.333h5.834c13.429 0 25.112 7.595 30.979 18.725 1 1.897 3.425 2.496 5.162 1.237l18.368-13.312a34.8 34.8 0 0 1 20.534-6.65z" opacity="1" data-original="#d82f3c" class=""></path><path fill="#6fbbc6" d="M328.1 484.28c-130.86 0-236.95-105.78-236.95-236.26 0-77.71 35.628-145.845 93.718-188.905C100.839 93.8 41.7 176.545 41.7 273.1c0 39.347 9.82 76.4 27.144 108.842 0 0 54.989 43.55 82.795 64.014 38.358 28.23 112.89 46.439 112.89 46.439s82.932 2.814 114.732-13.646a238.14 238.14 0 0 1-51.161 5.531z" opacity="1" data-original="#6fbbc6"></path><path fill="#b7e546" d="M379.635 478.541c-18.595-25.899-52.793-54.451-51.323-88.84.501-11.724-1.046-23.487-4.906-34.574-.061-.15-.11-.297-.159-.443-1.952-5.491-4.884-10.572-8.535-15.101-10.078-12.52-31.583-45.184-42.098-49.764-20.079-12.419-47.263-3.171-58.005 17.22-9.324 23.587-11.896 55.905-36.253 68.627-14.56 7.896-35.545 6.122-46.621-6.952-19.217-24.96-46.122-.826-62.868 13.218 6.654 12.431 33.803 21.544 42.583 32.57 36.43 45.761 68.853 63.401 122.234 72.98 49.652 9.01 100.602 14.614 145.41-8.666.18-.094.361-.182.541-.275z" opacity="1" data-original="#b7e546" class=""></path><path fill="#abd641" d="M379.17 478.77c-39.78 20.697-85.715 29.138-130.28 24.46v-.01c-75.319-7.365-144.829-54.348-180.02-121.29 13.24-11.11 32.85-28.54 49.98-22.97 39.85 74.57 118.61 125.32 209.25 125.32 17.54 0 34.62-1.9 51.07-5.51z" opacity="1" data-original="#abd641"></path><path fill="#ffbf54" d="M430.775 278.427v115.506l-7.36 6.988c0 9.665-10.988 11.121-20.654 11.121l-52.829-.397c-2.458 0-4.854.776-6.844 2.218l-43.595 30.271c-3.857 2.794-9.256.038-9.256-4.724l4.092-14.559c0-6.444-5.224-11.667-11.667-11.667h-14.001c-9.665 0-17.501-7.835-17.501-17.501l-2.11-108.356c0-9.665 3.839-19.859 13.504-19.859l4.878-6.541h145.841c9.666-.001 17.502 7.835 17.502 17.5z" opacity="1" data-original="#ffbf54"></path><path fill="#ffa442" d="M430.775 393.933v5.834c0 9.665-7.835 17.501-17.501 17.501h-62.63c-2.462 0-4.854.782-6.837 2.217l-47.288 34.243c-3.85 2.8-9.252.047-9.252-4.725v-20.068c0-6.444-5.224-11.667-11.667-11.667h-14.001c-9.665 0-17.501-7.835-17.501-17.501v-121.34c0-9.665 7.835-17.501 17.501-17.501h5.834V391.6a2.333 2.333 0 0 0 2.333 2.333h5.834c13.429 0 25.112 7.595 30.979 18.725 1 1.897 3.425 2.496 5.162 1.237l18.368-13.312a34.8 34.8 0 0 1 20.534-6.65z" opacity="1" data-original="#ffa442"></path><path fill="#abd641" d="m207.66 153.42-.29.24c-3.86 3.07-17.26 15.34-26.76 25.86-3.82-14.43-.5-29.75 14.32-41.52 20.59-17 12.99-50.12-1.4-68.86l-8.666-10.025A226.61 226.61 0 0 1 205.5 51.73c6.22 9.45 11.75 17.41 11.75 17.41 14.91 27.77 15.58 63.51-9.59 84.28z" opacity="1" data-original="#abd641"></path><path fill="#abd641" d="M288.21 198.71c-.27.46-.55.91-.84 1.36a55.5 55.5 0 0 1-15.23 15.66c-16.85 11.58-38.7 12.88-56.84 3.43-.46-.24-.93-.49-1.4-.74-28.44-13.94-47.89-50.81-23.98-75.85-7.61 22.98 10.36 49.51 34.55 60.85.49.25.98.5 1.46.74 18.96 9.45 41.8 8.15 59.41-3.43.98-.64 1.94-1.31 2.87-2.02z" opacity="1" data-original="#abd641"></path><g fill="#94ccd4"><path d="m246.362 502.945.192.022-.192-.022zM174.635 482.535c.227.107.456.211.683.317-.228-.106-.456-.21-.683-.317zM379.26 478.75c-4.13 2.14-8.32 4.15-12.59 6.03 4.2-1.86 8.34-3.85 12.42-5.97.03-.01.05-.03.08-.04s.06-.01.09-.02z" fill="#94ccd4" opacity="1" data-original="#94ccd4" class=""></path></g><path fill="#faf8f8" d="m15.553 144.502 1.468 100.637c0 9.855 8.03 17.844 17.936 17.844l56.305 1.84a12 12 0 0 1 7.014 2.262l38.427 32.486c3.953 2.849 9.486.039 9.486-4.817l2.428-15.705c0-6.57 5.353-11.896 11.957-11.896l18.584-.068c9.906 0 19.66-2.352 19.66-12.207V131.157c0-9.855-8.03-17.844-17.936-17.844H25.436c-9.906 0-9.883 21.334-9.883 31.189z" opacity="1" data-original="#faf8f8"></path><path fill="#f0e9e6" d="M198.82 252.72v2.16c0 9.85-8.03 17.84-17.94 17.84h-14.35c-6.6 0-11.95 5.33-11.95 11.9v20.47c0 4.85-5.54 7.66-9.49 4.81l-48.45-34.92c-2.04-1.47-4.5-2.26-7.02-2.26H25.44c-9.91 0-17.94-7.99-17.94-17.84V131.16c0-9.86 8.03-17.85 17.94-17.85h2.06v134.41a5 5 0 0 0 5 5h57.12c6.72 0 13.27 2.12 18.71 6.04l22.35 16.11c2.14 1.54 5.12.6 6.08-1.85 4.66-11.87 16.25-20.3 29.77-20.3z" opacity="1" data-original="#f0e9e6"></path><path d="M481.888 156.912a25.152 25.152 0 0 0 1.254-7.846V25.344C483.142 11.369 471.731 0 457.706 0H302.26c-14.025 0-25.436 11.369-25.436 25.344v8.902c-33.533-.672-68.387 6.287-99.202 19.801-28.212 12.313-53.438 29.731-75.046 51.765H76a7.5 7.5 0 0 0 0 15h104.882c5.754 0 10.436 4.641 10.436 10.344v123.721c0 5.704-4.682 10.345-10.436 10.345h-14.349c-10.729 0-19.458 8.701-19.458 19.396v17.47L101.021 268.9a19.378 19.378 0 0 0-11.399-3.677H25.436c-5.754 0-10.436-4.641-10.436-10.345V131.157c0-5.704 4.682-10.344 10.436-10.344H41a7.5 7.5 0 0 0 0-15H25.436C11.411 105.813 0 117.182 0 131.157v123.721c0 13.975 11.411 25.345 25.436 25.345h8.881c1.778 61.143 26.418 118.367 69.857 161.806C149.296 487.15 209.289 512 273.101 512c33.177 0 65.293-6.674 95.458-19.836 29.134-12.712 55.096-30.852 77.166-53.915a7.5 7.5 0 0 0-.233-10.604 7.5 7.5 0 0 0-10.604.233c-16.479 17.22-35.175 31.437-55.462 42.419-9.532-12.686-23.519-27.95-32.87-42.58l1.788-1.289a4.464 4.464 0 0 1 2.628-.846h64.186c14.025 0 25.436-11.369 25.436-25.344V276.517c0-1.675-.168-3.31-.481-4.895 12.89-15.429 19.951-35.097 19.951-55.852a79.36 79.36 0 0 0-11.927-41.36h9.568a25.36 25.36 0 0 0 14.223-4.342C488.355 201.741 497 237.147 497 273.101c0 46.297-14.006 90.723-40.504 128.476a7.498 7.498 0 0 0 1.83 10.447c2.238 1.608 7.05 2.252 10.447-1.83C497.052 369.904 512 322.498 512 273.101c0-40.738-10.402-80.827-30.112-116.189zm-301.006-51.099H124.27c17.613-15.735 37.295-28.388 58.426-37.713l5.014 5.785c8.417 11.05 13.671 26.913 11.948 40.194-4.654-5.076-11.348-8.266-18.776-8.266zm174.676 358.615c3.586 4.368 7.034 8.573 10.2 12.678C337.089 490.143 305.685 497 273.101 497c-83.92 0-157.19-46.417-195.523-114.917 10.574-8.721 24.195-19.32 35.077-18.058 4.441.516 8.373 3.111 12.02 7.937 9.126 12.064 24.526 14.415 35.315 15.134 16.11-.996 30.466-9.225 39.429-22.493a7.5 7.5 0 1 0-12.369-8.485c-6.445 9.396-14.957 14.48-26.746 15.963-12.244-.899-19.559-3.738-23.665-9.167-6.161-8.15-13.648-12.79-22.254-13.79-15.885-1.841-31.508 9.32-43.835 19.326-12.724-26.921-20.235-56.765-21.224-88.228h40.295c.952 0 1.861.292 2.629.846l48.453 34.918a13.461 13.461 0 0 0 7.883 2.557c2.1 0 4.21-.494 6.163-1.493a13.388 13.388 0 0 0 7.325-11.965v-20.467c0-2.424 2-4.396 4.458-4.396h14.349c14.025 0 25.436-11.37 25.436-25.345V222.87c8.927 5.505 23.066 10.392 34.576 10.079a62.63 62.63 0 0 0 35.494-11.034c13.914-9.556 23.494-24.472 26.285-40.923.362-2.136.679-4.336.951-6.583h12.985c2.458 0 4.457 1.972 4.457 4.396v20.467c0 5.067 2.807 9.652 7.325 11.965 3.812 1.784 8.457 2.389 14.045-1.063l30.874-22.249c-1.193 11.615-4.317 23.836-18.543 38.033-6.681 6.801-10.516 15.886-10.72 25.213h-84.335c-14.025 0-25.436 11.37-25.436 25.345v3.242c-13.924 5.308-25.072 17.024-30.068 31.782-1.089 3.218-2.794 8.699-4.378 13.934a7.5 7.5 0 0 0 4.979 9.365c3.02.848 7.296-.198 9.365-4.979 1.063-3.478 2.521-8.328 4.243-13.511 2.888-8.532 8.6-15.61 15.86-19.975v103.862c0 13.975 11.411 25.344 25.436 25.344h14.349c2.458 0 4.457 1.972 4.457 4.396v20.466c0 5.067 2.807 9.651 7.325 11.965 1.953 1 4.063 1.493 6.164 1.493 2.775 0 5.532-.862 7.883-2.556l34.488-24.853c6.324 9.818 13.849 19.01 21.18 27.937zm70.038-64.191c0 5.704-4.682 10.344-10.436 10.344h-64.186c-4.12 0-8.062 1.272-11.399 3.678l-46.055 33.189v-17.471c0-10.695-8.729-19.396-19.457-19.396h-14.349c-5.754 0-10.436-4.641-10.436-10.344v-123.72c0-5.704 4.682-10.345 10.436-10.345h92.635l.023.002.033-.002h62.756c5.754 0 10.436 4.641 10.436 10.345v123.72zm19.47-184.416c0 15.236-4.597 29.757-13.056 41.732a25.38 25.38 0 0 0-16.85-6.381h-56.106c.2-5.417 2.48-10.697 6.362-14.648 21.123-21.079 22.407-39.759 23.438-54.768.126-1.844.253-3.615.409-5.327l1.626-1.172a4.471 4.471 0 0 1 2.63-.847h36.092c9.878 11.564 15.351 26.181 15.455 41.411zm12.64-56.411H393.52a19.378 19.378 0 0 0-11.399 3.677l-4.481 3.229-.051.036-41.523 29.924v-17.471c0-10.695-8.729-19.396-19.457-19.396H302.26c-5.754 0-10.436-4.641-10.436-10.344V121a7.5 7.5 0 0 0-15 0v28.065c0 9.115 4.856 17.118 12.123 21.584a127.27 127.27 0 0 1-1.063 7.836c-2.115 12.472-9.401 23.795-19.988 31.066-18.677 13.146-43.842 9.827-61.578-4.852v-67.815c16.092-21.223 8.041-54.981-8.872-74.67 24.144-8.66 52.191-13.541 79.377-12.969V86a7.5 7.5 0 0 0 15 0V25.344c0-5.704 4.682-10.344 10.436-10.344h155.446c5.754 0 10.436 4.641 10.436 10.344v123.721c.001 5.704-4.681 10.345-10.435 10.345z" fill="#000000" opacity="1" data-original="#000000" class=""></path><path d="M426.308 49.753h-38.825V37a7.5 7.5 0 0 0-15 0v12.753h-38.825a7.5 7.5 0 0 0 0 15h15.551a107.155 107.155 0 0 0 20.644 43.123 92.958 92.958 0 0 1-26.375 17.669l-10.333 4.605a7.5 7.5 0 0 0 3.057 14.352c1.02 0 2.057-.209 3.048-.651l10.333-4.605a107.98 107.98 0 0 0 30.4-20.293 107.98 107.98 0 0 0 30.4 20.293l10.333 4.605c2.636 1.092 7.58.786 9.903-3.798a7.5 7.5 0 0 0-3.798-9.903l-10.333-4.605a92.923 92.923 0 0 1-26.375-17.669 107.153 107.153 0 0 0 20.643-43.123h15.551a7.5 7.5 0 0 0 .001-15zm-46.325 46.693a92.175 92.175 0 0 1-15.335-31.693h30.669a92.173 92.173 0 0 1-15.334 31.693zM64.983 245.017a7.5 7.5 0 0 0 9.665-4.369l6.509-17.247h43.945l6.577 17.269a7.503 7.503 0 0 0 7.01 4.833 7.5 7.5 0 0 0 7.007-10.171L111.902 146.6l-.067-.171a9.507 9.507 0 0 0-8.82-5.927h-.01a9.51 9.51 0 0 0-8.904 6.116l-33.487 88.736a7.498 7.498 0 0 0 4.369 9.663zm38.045-79.573 16.361 42.957H86.817zM394.886 293h-34.891a7.5 7.5 0 0 0 0 15h9.945v23.5h-29.833a26.583 26.583 0 0 0 2.724-11.75c0-14.75-12-26.75-26.75-26.75h-21.656a7.5 7.5 0 0 0 0 15h21.656c6.479 0 11.75 5.271 11.75 11.75s-5.271 11.75-11.75 11.75h-24.063a7.5 7.5 0 0 0 0 15h24.063c6.479 0 11.75 5.271 11.75 11.75 0 6.589-5.161 11.75-11.75 11.75-10.362 0-22.125-1.168-30.791-9.834a7.5 7.5 0 0 0-10.606 0 7.5 7.5 0 0 0 0 10.606C287.295 383.383 303.432 385 316.081 385c14.75 0 26.75-12 26.75-26.75 0-4.213-.981-8.201-2.724-11.75h29.833v31a7.5 7.5 0 0 0 15 0V308h9.945a7.5 7.5 0 0 0 .001-15z" fill="#000000" opacity="1" data-original="#000000" class=""></path></g></svg>
