<svg xmlns="http://www.w3.org/2000/svg" version="1.1" xmlns:xlink="http://www.w3.org/1999/xlink" width="512" height="512" x="0" y="0" viewBox="0 0 512 512" style="enable-background:new 0 0 512 512" xml:space="preserve" class=""><g><path fill="#ffffff" d="M50 360h412c22.09 0 40-17.91 40-40V50c0-22.09-17.91-40-40-40H50c-22.09 0-40 17.91-40 40v270c0 22.09 17.91 40 40 40z" opacity="1" data-original="#ffffff"></path><circle cx="376" cy="190" r="80" fill="#ccf5fc" opacity="1" data-original="#ccf5fc"></circle><circle cx="281" cy="158" r="20" fill="#33d6f5" opacity="1" data-original="#33d6f5"></circle><circle cx="191" cy="190" r="20" fill="#33d6f5" opacity="1" data-original="#33d6f5"></circle><path fill="#ccf5fc" d="M306 270h140v40H306z" opacity="1" data-original="#ccf5fc"></path><path fill="#e2e9ee" d="M401 502h-50l-25-192h100z" opacity="1" data-original="#e2e9ee"></path><circle cx="502" cy="184.86" r="10" fill="#000000" opacity="1" data-original="#000000" class=""></circle><path d="M508.07 30.54a49.805 49.805 0 0 0-10.72-15.89c-4.59-4.6-9.93-8.2-15.89-10.72C475.3 1.32 468.75 0 462 0H50c-6.75 0-13.3 1.32-19.46 3.93a49.642 49.642 0 0 0-15.89 10.72c-4.59 4.59-8.2 9.93-10.72 15.89C1.32 36.7 0 43.25 0 50v270c0 6.75 1.32 13.3 3.93 19.46 2.52 5.96 6.13 11.3 10.72 15.89 4.59 4.6 9.93 8.2 15.89 10.72C36.7 368.68 43.25 370 50 370h273.72l17.36 133.29c.65 4.98 4.9 8.71 9.92 8.71h50c5.02 0 9.27-3.73 9.92-8.71L428.28 370H462c6.75 0 13.3-1.32 19.46-3.93 5.96-2.52 11.3-6.12 15.89-10.72A49.805 49.805 0 0 0 512 320v-90.14c0-5.52-4.49-10-10-10s-10 4.48-10 10V320c-.03 16.51-13.49 29.97-30 30h-31.12l3.91-30H446c5.52 0 10-4.48 10-10v-40c0-5.52-4.48-10-10-10h-13.5c20.42-16.51 33.5-41.75 33.5-70 0-49.63-40.37-90-90-90-25.53 0-48.62 10.69-65 27.82V50a10.001 10.001 0 0 0-13.349-9.422l-90 32A10 10 0 0 0 201 82v79.72c-3.13-1.12-6.5-1.72-10-1.72-16.54 0-30 13.46-30 30s13.46 30 30 30c16.35 0 29.69-13.15 29.99-29.43.01-.19.01-.38.01-.57V89.058l70-24.889v65.551c-3.13-1.12-6.5-1.72-10-1.72-16.54 0-30 13.46-30 30s13.46 30 30 30c1.71 0 3.4-.14 5.03-.43-.02.81-.03 1.62-.03 2.43 0 18.49 5.6 35.69 15.2 50H278c-5.52 0-10 4.48-10 10s4.48 10 10 10h28c-5.52 0-10 4.48-10 10v10h-59c-5.52 0-10 4.48-10 10s4.48 10 10 10h59v10c0 5.52 4.48 10 10 10h11.21l3.91 30H50c-16.51-.03-29.97-13.49-30-30V50c.03-16.51 13.49-29.97 30-30h412c16.51.03 29.97 13.49 30 30v89.86c0 5.51 4.49 10 10 10s10-4.49 10-10V50c0-6.75-1.33-13.3-3.93-19.46zM191 200c-5.51 0-10-4.49-10-10s4.49-10 10-10 10 4.49 10 10-4.49 10-10 10zm245 80v20H316v-20zm-60-160c38.6 0 70 31.4 70 70s-31.4 70-70 70-70-31.4-70-70 31.4-70 70-70zm-95 48c-5.51 0-10-4.49-10-10s4.49-10 10-10 10 4.49 10 10-4.49 10-10 10zm56.39 152h77.22l-22.39 172h-32.44z" fill="#000000" opacity="1" data-original="#000000" class=""></path><path d="M408.04 185.01a10 10 0 1 0 2.44-17.63c-5.21 1.82-7.96 7.52-6.15 12.73a9.935 9.935 0 0 0 3.71 4.9zM376 160c2.76 0 5.26-1.12 7.07-2.93S386 152.76 386 150s-1.12-5.26-2.93-7.07S378.76 140 376 140c-5.52 0-10 4.48-10 10 0 2.76 1.12 5.26 2.93 7.07S373.24 160 376 160zM395.18 231.24c1.39.68 2.92 1.04 4.46 1.04 2.05 0 4.12-.63 5.9-1.94a9.987 9.987 0 0 0 4.09-8.07c0-2.05-.63-4.12-1.94-5.9a9.96 9.96 0 0 0-8.07-4.09c-2.06 0-4.13.63-5.91 1.93-4.45 3.27-5.41 9.53-2.15 13.98a10.05 10.05 0 0 0 3.62 3.05zM344.69 216.82c-3.21 4.49-2.15 10.74 2.35 13.94a9.957 9.957 0 0 0 5.79 1.85c1.56 0 3.11-.37 4.51-1.07a9.983 9.983 0 0 0 3.64-3.13 9.957 9.957 0 0 0 1.85-5.79c0-3.12-1.46-6.2-4.2-8.15a9.968 9.968 0 0 0-5.79-1.86c-3.12 0-6.2 1.47-8.15 4.21zM334.81 187.88c.98.3 1.96.44 2.92.44 2.15 0 4.21-.69 5.9-1.92 1.69-1.24 3.01-3.01 3.67-5.17.3-.97.44-1.95.44-2.92 0-4.28-2.78-8.25-7.09-9.56-.97-.3-1.95-.44-2.92-.44-4.29 0-8.25 2.78-9.56 7.09-1.61 5.28 1.36 10.87 6.64 12.48z" fill="#000000" opacity="1" data-original="#000000" class=""></path><circle cx="376" cy="190" r="10" fill="#000000" opacity="1" data-original="#000000" class=""></circle><path d="M123 300h69c5.52 0 10-4.48 10-10s-4.48-10-10-10h-69c-5.52 0-10 4.48-10 10s4.48 10 10 10zM129 250c0-5.52-4.48-10-10-10H50c-5.52 0-10 4.48-10 10s4.48 10 10 10h69c5.52 0 10-4.48 10-10zM243 250c0-5.52-4.48-10-10-10h-69c-5.52 0-10 4.48-10 10s4.48 10 10 10h69c5.52 0 10-4.48 10-10z" fill="#000000" opacity="1" data-original="#000000" class=""></path></g></svg>
